  0
SECTION
  2
HEADER
  9
$ACADVER
  1
AC1009
  0
ENDSEC
  0
SECTION
  2
ENTITIES
  0
POLYLINE
  5
90
  8
Layer_0
  66
1
  10
0
  20
0
  30
0
  0
VERTEX
  5
90
  8
Layer_0
  10
500
  20
21.875336
  0
VERTEX
  5
91
  8
Layer_0
  10
497
  20
21.875336
  0
SEQEND
  0
POLYLINE
  5
93
  8
Layer_0
  66
1
  10
0
  20
0
  30
0
  0
VERTEX
  5
93
  8
Layer_0
  10
427.00006
  20
28.375336
  0
VERTEX
  5
94
  8
Layer_0
  10
415
  20
28.375336
  0
SEQEND
  0
POLYLINE
  5
96
  8
Layer_0
  70
1
  66
1
  10
0
  20
0
  30
0
  0
VERTEX
  5
96
  8
Layer_0
  10
18.750031
  20
-21.999664
  0
VERTEX
  5
97
  8
Layer_0
  10
18.750031
  20
-24.999664
  0
VERTEX
  5
98
  8
Layer_0
  10
-68.749969
  20
-24.999664
  0
VERTEX
  5
99
  8
Layer_0
  10
-68.749969
  20
-21.999664
  0
VERTEX
  5
9a
  8
Layer_0
  10
-110.375
  20
-21.999664
  0
VERTEX
  5
9b
  8
Layer_0
  10
-110.375
  20
-19.649689
  0
VERTEX
  5
9c
  8
Layer_0
  10
-108.875
  20
-19.649689
  0
VERTEX
  5
9d
  8
Layer_0
  10
-108.875
  20
-16.199677
  0
VERTEX
  5
9e
  8
Layer_0
  10
-110.375
  20
-16.199677
  0
VERTEX
  5
9f
  8
Layer_0
  10
-110.375
  20
-12.749664
  0
VERTEX
  5
a0
  8
Layer_0
  10
-114.625
  20
-12.749664
  0
VERTEX
  5
a1
  8
Layer_0
  10
-114.625
  20
-16.199677
  0
VERTEX
  5
a2
  8
Layer_0
  10
-116.125
  20
-16.199677
  0
VERTEX
  5
a3
  8
Layer_0
  10
-116.125
  20
-19.649689
  0
VERTEX
  5
a4
  8
Layer_0
  10
-114.625
  20
-19.649689
  0
VERTEX
  5
a5
  8
Layer_0
  10
-114.625
  20
-21.999664
  0
VERTEX
  5
a6
  8
Layer_0
  10
-156.25
  20
-21.999664
  0
VERTEX
  5
a7
  8
Layer_0
  10
-156.25
  20
-24.999664
  0
VERTEX
  5
a8
  8
Layer_0
  10
-200
  20
-24.999664
  0
VERTEX
  5
a9
  8
Layer_0
  10
-200
  20
-9.3746643
  0
VERTEX
  5
aa
  8
Layer_0
  10
-197
  20
-9.3746643
  0
VERTEX
  5
ab
  8
Layer_0
  10
-197
  20
4.1253357
  0
VERTEX
  5
ac
  8
Layer_0
  10
-194.64999
  20
4.1253357
  0
VERTEX
  5
ad
  8
Layer_0
  10
-194.64999
  20
2.6252747
  0
VERTEX
  5
ae
  8
Layer_0
  10
-191.19998
  20
2.6252747
  0
VERTEX
  5
af
  8
Layer_0
  10
-191.19998
  20
4.1253357
  0
VERTEX
  5
b0
  8
Layer_0
  10
-187.75
  20
4.1253357
  0
VERTEX
  5
b1
  8
Layer_0
  10
-187.75
  20
8.3753357
  0
VERTEX
  5
b2
  8
Layer_0
  10
-191.19998
  20
8.3753357
  0
VERTEX
  5
b3
  8
Layer_0
  10
-191.19998
  20
9.8753357
  0
VERTEX
  5
b4
  8
Layer_0
  10
-194.64999
  20
9.8753357
  0
VERTEX
  5
b5
  8
Layer_0
  10
-194.64999
  20
8.3753357
  0
VERTEX
  5
b6
  8
Layer_0
  10
-197
  20
8.3753357
  0
VERTEX
  5
b7
  8
Layer_0
  10
-197
  20
21.875336
  0
VERTEX
  5
b8
  8
Layer_0
  10
-200
  20
21.875336
  0
VERTEX
  5
b9
  8
Layer_0
  10
-200
  20
53.125336
  0
VERTEX
  5
ba
  8
Layer_0
  10
-197
  20
53.125336
  0
VERTEX
  5
bb
  8
Layer_0
  10
-197
  20
66.625336
  0
VERTEX
  5
bc
  8
Layer_0
  10
-194.64999
  20
66.625336
  0
VERTEX
  5
bd
  8
Layer_0
  10
-194.64999
  20
65.125336
  0
VERTEX
  5
be
  8
Layer_0
  10
-191.19998
  20
65.125336
  0
VERTEX
  5
bf
  8
Layer_0
  10
-191.19998
  20
66.625336
  0
VERTEX
  5
c0
  8
Layer_0
  10
-187.75
  20
66.625336
  0
VERTEX
  5
c1
  8
Layer_0
  10
-187.75
  20
70.875336
  0
VERTEX
  5
c2
  8
Layer_0
  10
-191.19998
  20
70.875336
  0
VERTEX
  5
c3
  8
Layer_0
  10
-191.19998
  20
72.375336
  0
VERTEX
  5
c4
  8
Layer_0
  10
-194.64999
  20
72.375336
  0
VERTEX
  5
c5
  8
Layer_0
  10
-194.64999
  20
70.875336
  0
VERTEX
  5
c6
  8
Layer_0
  10
-197
  20
70.875336
  0
VERTEX
  5
c7
  8
Layer_0
  10
-197
  20
84.375336
  0
VERTEX
  5
c8
  8
Layer_0
  10
-200
  20
84.375336
  0
VERTEX
  5
c9
  8
Layer_0
  10
-200
  20
115.62534
  0
VERTEX
  5
ca
  8
Layer_0
  10
-197
  20
115.62534
  0
VERTEX
  5
cb
  8
Layer_0
  10
-197
  20
129.12534
  0
VERTEX
  5
cc
  8
Layer_0
  10
-194.64999
  20
129.12534
  0
VERTEX
  5
cd
  8
Layer_0
  10
-194.64999
  20
127.62534
  0
VERTEX
  5
ce
  8
Layer_0
  10
-191.19998
  20
127.62534
  0
VERTEX
  5
cf
  8
Layer_0
  10
-191.19998
  20
129.12534
  0
VERTEX
  5
d0
  8
Layer_0
  10
-187.75
  20
129.12534
  0
VERTEX
  5
d1
  8
Layer_0
  10
-187.75
  20
133.37534
  0
VERTEX
  5
d2
  8
Layer_0
  10
-191.19998
  20
133.37534
  0
VERTEX
  5
d3
  8
Layer_0
  10
-191.19998
  20
134.87534
  0
VERTEX
  5
d4
  8
Layer_0
  10
-194.64999
  20
134.87534
  0
VERTEX
  5
d5
  8
Layer_0
  10
-194.64999
  20
133.37534
  0
VERTEX
  5
d6
  8
Layer_0
  10
-197
  20
133.37534
  0
VERTEX
  5
d7
  8
Layer_0
  10
-197
  20
146.87534
  0
VERTEX
  5
d8
  8
Layer_0
  10
-200
  20
146.87534
  0
VERTEX
  5
d9
  8
Layer_0
  10
-200
  20
178.12534
  0
VERTEX
  5
da
  8
Layer_0
  10
-197
  20
178.12534
  0
VERTEX
  5
db
  8
Layer_0
  10
-197
  20
191.62534
  0
VERTEX
  5
dc
  8
Layer_0
  10
-194.64999
  20
191.62534
  0
VERTEX
  5
dd
  8
Layer_0
  10
-194.64999
  20
190.12534
  0
VERTEX
  5
de
  8
Layer_0
  10
-191.19998
  20
190.12534
  0
VERTEX
  5
df
  8
Layer_0
  10
-191.19998
  20
191.62534
  0
VERTEX
  5
e0
  8
Layer_0
  10
-187.75
  20
191.62534
  0
VERTEX
  5
e1
  8
Layer_0
  10
-187.75
  20
195.87534
  0
VERTEX
  5
e2
  8
Layer_0
  10
-191.19998
  20
195.87534
  0
VERTEX
  5
e3
  8
Layer_0
  10
-191.19998
  20
197.37534
  0
VERTEX
  5
e4
  8
Layer_0
  10
-194.64999
  20
197.37534
  0
VERTEX
  5
e5
  8
Layer_0
  10
-194.64999
  20
195.87534
  0
VERTEX
  5
e6
  8
Layer_0
  10
-197
  20
195.87534
  0
VERTEX
  5
e7
  8
Layer_0
  10
-197
  20
209.37527
  0
VERTEX
  5
e8
  8
Layer_0
  10
-200
  20
209.37527
  0
VERTEX
  5
e9
  8
Layer_0
  10
-200
  20
225.00034
  0
VERTEX
  5
ea
  8
Layer_0
  10
-156.25
  20
225.00034
  0
VERTEX
  5
eb
  8
Layer_0
  10
-156.25
  20
222.00034
  0
VERTEX
  5
ec
  8
Layer_0
  10
-114.625
  20
222.00034
  0
VERTEX
  5
ed
  8
Layer_0
  10
-114.625
  20
219.6503
  0
VERTEX
  5
ee
  8
Layer_0
  10
-116.125
  20
219.6503
  0
VERTEX
  5
ef
  8
Layer_0
  10
-116.125
  20
216.20035
  0
VERTEX
  5
f0
  8
Layer_0
  10
-114.625
  20
216.20035
  0
VERTEX
  5
f1
  8
Layer_0
  10
-114.625
  20
212.75034
  0
VERTEX
  5
f2
  8
Layer_0
  10
-110.375
  20
212.75034
  0
VERTEX
  5
f3
  8
Layer_0
  10
-110.375
  20
216.20035
  0
VERTEX
  5
f4
  8
Layer_0
  10
-108.875
  20
216.20035
  0
VERTEX
  5
f5
  8
Layer_0
  10
-108.875
  20
219.6503
  0
VERTEX
  5
f6
  8
Layer_0
  10
-110.375
  20
219.6503
  0
VERTEX
  5
f7
  8
Layer_0
  10
-110.375
  20
222.00034
  0
VERTEX
  5
f8
  8
Layer_0
  10
-68.749969
  20
222.00034
  0
VERTEX
  5
f9
  8
Layer_0
  10
-68.749969
  20
225.00034
  0
VERTEX
  5
fa
  8
Layer_0
  10
18.750031
  20
225.00034
  0
VERTEX
  5
fb
  8
Layer_0
  10
18.750031
  20
222.00034
  0
VERTEX
  5
fc
  8
Layer_0
  10
60.375
  20
222.00034
  0
VERTEX
  5
fd
  8
Layer_0
  10
60.375
  20
219.6503
  0
VERTEX
  5
fe
  8
Layer_0
  10
58.875
  20
219.6503
  0
VERTEX
  5
ff
  8
Layer_0
  10
58.875
  20
216.20035
  0
VERTEX
  5
100
  8
Layer_0
  10
60.375
  20
216.20035
  0
VERTEX
  5
101
  8
Layer_0
  10
60.375
  20
212.75034
  0
VERTEX
  5
102
  8
Layer_0
  10
64.625
  20
212.75034
  0
VERTEX
  5
103
  8
Layer_0
  10
64.625
  20
216.20035
  0
VERTEX
  5
104
  8
Layer_0
  10
66.125
  20
216.20035
  0
VERTEX
  5
105
  8
Layer_0
  10
66.125
  20
219.6503
  0
VERTEX
  5
106
  8
Layer_0
  10
64.625
  20
219.6503
  0
VERTEX
  5
107
  8
Layer_0
  10
64.625
  20
222.00034
  0
VERTEX
  5
108
  8
Layer_0
  10
106.25
  20
222.00034
  0
VERTEX
  5
109
  8
Layer_0
  10
106.25
  20
225.00034
  0
VERTEX
  5
10a
  8
Layer_0
  10
193.75
  20
225.00034
  0
VERTEX
  5
10b
  8
Layer_0
  10
193.75
  20
222.00034
  0
VERTEX
  5
10c
  8
Layer_0
  10
235.375
  20
222.00034
  0
VERTEX
  5
10d
  8
Layer_0
  10
235.375
  20
219.6503
  0
VERTEX
  5
10e
  8
Layer_0
  10
233.875
  20
219.6503
  0
VERTEX
  5
10f
  8
Layer_0
  10
233.875
  20
216.20035
  0
VERTEX
  5
110
  8
Layer_0
  10
235.375
  20
216.20035
  0
VERTEX
  5
111
  8
Layer_0
  10
235.375
  20
212.75034
  0
VERTEX
  5
112
  8
Layer_0
  10
239.625
  20
212.75034
  0
VERTEX
  5
113
  8
Layer_0
  10
239.625
  20
216.20035
  0
VERTEX
  5
114
  8
Layer_0
  10
241.125
  20
216.20035
  0
VERTEX
  5
115
  8
Layer_0
  10
241.125
  20
219.6503
  0
VERTEX
  5
116
  8
Layer_0
  10
239.625
  20
219.6503
  0
VERTEX
  5
117
  8
Layer_0
  10
239.625
  20
222.00034
  0
VERTEX
  5
118
  8
Layer_0
  10
281.25
  20
222.00034
  0
VERTEX
  5
119
  8
Layer_0
  10
281.25
  20
225.00034
  0
VERTEX
  5
11a
  8
Layer_0
  10
368.75
  20
225.00034
  0
VERTEX
  5
11b
  8
Layer_0
  10
368.75
  20
222.00034
  0
VERTEX
  5
11c
  8
Layer_0
  10
410.37506
  20
222.00034
  0
VERTEX
  5
11d
  8
Layer_0
  10
410.37506
  20
219.6503
  0
VERTEX
  5
11e
  8
Layer_0
  10
408.87494
  20
219.6503
  0
VERTEX
  5
11f
  8
Layer_0
  10
408.87494
  20
216.20035
  0
VERTEX
  5
120
  8
Layer_0
  10
410.37506
  20
216.20035
  0
VERTEX
  5
121
  8
Layer_0
  10
410.37506
  20
212.75034
  0
VERTEX
  5
122
  8
Layer_0
  10
414.625
  20
212.75034
  0
VERTEX
  5
123
  8
Layer_0
  10
414.625
  20
216.20035
  0
VERTEX
  5
124
  8
Layer_0
  10
416.125
  20
216.20035
  0
VERTEX
  5
125
  8
Layer_0
  10
416.125
  20
219.6503
  0
VERTEX
  5
126
  8
Layer_0
  10
414.625
  20
219.6503
  0
VERTEX
  5
127
  8
Layer_0
  10
414.625
  20
222.00034
  0
VERTEX
  5
128
  8
Layer_0
  10
456.25
  20
222.00034
  0
VERTEX
  5
129
  8
Layer_0
  10
456.25
  20
225.00034
  0
VERTEX
  5
12a
  8
Layer_0
  10
500
  20
225.00034
  0
VERTEX
  5
12b
  8
Layer_0
  10
500
  20
209.37527
  0
VERTEX
  5
12c
  8
Layer_0
  10
497
  20
209.37527
  0
VERTEX
  5
12d
  8
Layer_0
  10
497
  20
195.87534
  0
VERTEX
  5
12e
  8
Layer_0
  10
494.65002
  20
195.87534
  0
VERTEX
  5
12f
  8
Layer_0
  10
494.65002
  20
197.37534
  0
VERTEX
  5
130
  8
Layer_0
  10
491.20001
  20
197.37534
  0
VERTEX
  5
131
  8
Layer_0
  10
491.20001
  20
195.87534
  0
VERTEX
  5
132
  8
Layer_0
  10
487.75
  20
195.87534
  0
VERTEX
  5
133
  8
Layer_0
  10
487.75
  20
191.62534
  0
VERTEX
  5
134
  8
Layer_0
  10
491.20001
  20
191.62534
  0
VERTEX
  5
135
  8
Layer_0
  10
491.20001
  20
190.12534
  0
VERTEX
  5
136
  8
Layer_0
  10
494.65002
  20
190.12534
  0
VERTEX
  5
137
  8
Layer_0
  10
494.65002
  20
191.62534
  0
VERTEX
  5
138
  8
Layer_0
  10
497
  20
191.62534
  0
VERTEX
  5
139
  8
Layer_0
  10
497
  20
178.12534
  0
VERTEX
  5
13a
  8
Layer_0
  10
500
  20
178.12534
  0
VERTEX
  5
13b
  8
Layer_0
  10
500
  20
146.87534
  0
VERTEX
  5
13c
  8
Layer_0
  10
497
  20
146.87534
  0
VERTEX
  5
13d
  8
Layer_0
  10
497
  20
133.37534
  0
VERTEX
  5
13e
  8
Layer_0
  10
494.65002
  20
133.37534
  0
VERTEX
  5
13f
  8
Layer_0
  10
494.65002
  20
134.87534
  0
VERTEX
  5
140
  8
Layer_0
  10
491.20001
  20
134.87534
  0
VERTEX
  5
141
  8
Layer_0
  10
491.20001
  20
133.37534
  0
VERTEX
  5
142
  8
Layer_0
  10
487.75
  20
133.37534
  0
VERTEX
  5
143
  8
Layer_0
  10
487.75
  20
129.12534
  0
VERTEX
  5
144
  8
Layer_0
  10
491.20001
  20
129.12534
  0
VERTEX
  5
145
  8
Layer_0
  10
491.20001
  20
127.62534
  0
VERTEX
  5
146
  8
Layer_0
  10
494.65002
  20
127.62534
  0
VERTEX
  5
147
  8
Layer_0
  10
494.65002
  20
129.12534
  0
VERTEX
  5
148
  8
Layer_0
  10
497
  20
129.12534
  0
VERTEX
  5
149
  8
Layer_0
  10
497
  20
115.62534
  0
VERTEX
  5
14a
  8
Layer_0
  10
500
  20
115.62534
  0
VERTEX
  5
14b
  8
Layer_0
  10
500
  20
84.375336
  0
VERTEX
  5
14c
  8
Layer_0
  10
497
  20
84.375336
  0
VERTEX
  5
14d
  8
Layer_0
  10
497
  20
70.875336
  0
VERTEX
  5
14e
  8
Layer_0
  10
494.65002
  20
70.875336
  0
VERTEX
  5
14f
  8
Layer_0
  10
494.65002
  20
72.375336
  0
VERTEX
  5
150
  8
Layer_0
  10
491.20001
  20
72.375336
  0
VERTEX
  5
151
  8
Layer_0
  10
491.20001
  20
70.875336
  0
VERTEX
  5
152
  8
Layer_0
  10
487.75
  20
70.875336
  0
VERTEX
  5
153
  8
Layer_0
  10
487.75
  20
66.625336
  0
VERTEX
  5
154
  8
Layer_0
  10
491.20001
  20
66.625336
  0
VERTEX
  5
155
  8
Layer_0
  10
491.20001
  20
65.125336
  0
VERTEX
  5
156
  8
Layer_0
  10
494.65002
  20
65.125336
  0
VERTEX
  5
157
  8
Layer_0
  10
494.65002
  20
66.625336
  0
VERTEX
  5
158
  8
Layer_0
  10
497
  20
66.625336
  0
VERTEX
  5
159
  8
Layer_0
  10
497
  20
53.125336
  0
VERTEX
  5
15a
  8
Layer_0
  10
500
  20
53.125336
  0
VERTEX
  5
15b
  8
Layer_0
  10
500
  20
21.875336
  0
VERTEX
  5
15c
  8
Layer_0
  10
497
  20
21.875336
  0
VERTEX
  5
15d
  8
Layer_0
  10
497
  20
8.3753357
  0
VERTEX
  5
15e
  8
Layer_0
  10
494.65002
  20
8.3753357
  0
VERTEX
  5
15f
  8
Layer_0
  10
494.65002
  20
9.8753357
  0
VERTEX
  5
160
  8
Layer_0
  10
491.20001
  20
9.8753357
  0
VERTEX
  5
161
  8
Layer_0
  10
491.20001
  20
8.3753357
  0
VERTEX
  5
162
  8
Layer_0
  10
487.75
  20
8.3753357
  0
VERTEX
  5
163
  8
Layer_0
  10
487.75
  20
4.1253357
  0
VERTEX
  5
164
  8
Layer_0
  10
491.20001
  20
4.1253357
  0
VERTEX
  5
165
  8
Layer_0
  10
491.20001
  20
2.6252747
  0
VERTEX
  5
166
  8
Layer_0
  10
494.65002
  20
2.6252747
  0
VERTEX
  5
167
  8
Layer_0
  10
494.65002
  20
4.1253357
  0
VERTEX
  5
168
  8
Layer_0
  10
497
  20
4.1253357
  0
VERTEX
  5
169
  8
Layer_0
  10
497
  20
-9.3746643
  0
VERTEX
  5
16a
  8
Layer_0
  10
500
  20
-9.3746643
  0
VERTEX
  5
16b
  8
Layer_0
  10
500
  20
-24.999664
  0
VERTEX
  5
16c
  8
Layer_0
  10
456.25
  20
-24.999664
  0
VERTEX
  5
16d
  8
Layer_0
  10
456.25
  20
-21.999664
  0
VERTEX
  5
16e
  8
Layer_0
  10
414.625
  20
-21.999664
  0
VERTEX
  5
16f
  8
Layer_0
  10
414.625
  20
-19.649689
  0
VERTEX
  5
170
  8
Layer_0
  10
416.125
  20
-19.649689
  0
VERTEX
  5
171
  8
Layer_0
  10
416.125
  20
-16.199677
  0
VERTEX
  5
172
  8
Layer_0
  10
414.625
  20
-16.199677
  0
VERTEX
  5
173
  8
Layer_0
  10
414.625
  20
-12.749664
  0
VERTEX
  5
174
  8
Layer_0
  10
410.37506
  20
-12.749664
  0
VERTEX
  5
175
  8
Layer_0
  10
410.37506
  20
-16.199677
  0
VERTEX
  5
176
  8
Layer_0
  10
408.87494
  20
-16.199677
  0
VERTEX
  5
177
  8
Layer_0
  10
408.87494
  20
-19.649689
  0
VERTEX
  5
178
  8
Layer_0
  10
410.37506
  20
-19.649689
  0
VERTEX
  5
179
  8
Layer_0
  10
410.37506
  20
-21.999664
  0
VERTEX
  5
17a
  8
Layer_0
  10
368.75
  20
-21.999664
  0
VERTEX
  5
17b
  8
Layer_0
  10
368.75
  20
-24.999664
  0
VERTEX
  5
17c
  8
Layer_0
  10
281.25
  20
-24.999664
  0
VERTEX
  5
17d
  8
Layer_0
  10
281.25
  20
-21.999664
  0
VERTEX
  5
17e
  8
Layer_0
  10
239.625
  20
-21.999664
  0
VERTEX
  5
17f
  8
Layer_0
  10
239.625
  20
-19.649689
  0
VERTEX
  5
180
  8
Layer_0
  10
241.125
  20
-19.649689
  0
VERTEX
  5
181
  8
Layer_0
  10
241.125
  20
-16.199677
  0
VERTEX
  5
182
  8
Layer_0
  10
239.625
  20
-16.199677
  0
VERTEX
  5
183
  8
Layer_0
  10
239.625
  20
-12.749664
  0
VERTEX
  5
184
  8
Layer_0
  10
235.375
  20
-12.749664
  0
VERTEX
  5
185
  8
Layer_0
  10
235.375
  20
-16.199677
  0
VERTEX
  5
186
  8
Layer_0
  10
233.875
  20
-16.199677
  0
VERTEX
  5
187
  8
Layer_0
  10
233.875
  20
-19.649689
  0
VERTEX
  5
188
  8
Layer_0
  10
235.375
  20
-19.649689
  0
VERTEX
  5
189
  8
Layer_0
  10
235.375
  20
-21.999664
  0
VERTEX
  5
18a
  8
Layer_0
  10
193.75
  20
-21.999664
  0
VERTEX
  5
18b
  8
Layer_0
  10
193.75
  20
-24.999664
  0
VERTEX
  5
18c
  8
Layer_0
  10
106.25
  20
-24.999664
  0
VERTEX
  5
18d
  8
Layer_0
  10
106.25
  20
-21.999664
  0
VERTEX
  5
18e
  8
Layer_0
  10
64.625
  20
-21.999664
  0
VERTEX
  5
18f
  8
Layer_0
  10
64.625
  20
-19.649689
  0
VERTEX
  5
190
  8
Layer_0
  10
66.125
  20
-19.649689
  0
VERTEX
  5
191
  8
Layer_0
  10
66.125
  20
-16.199677
  0
VERTEX
  5
192
  8
Layer_0
  10
64.625
  20
-16.199677
  0
VERTEX
  5
193
  8
Layer_0
  10
64.625
  20
-12.749664
  0
VERTEX
  5
194
  8
Layer_0
  10
60.375
  20
-12.749664
  0
VERTEX
  5
195
  8
Layer_0
  10
60.375
  20
-16.199677
  0
VERTEX
  5
196
  8
Layer_0
  10
58.875
  20
-16.199677
  0
VERTEX
  5
197
  8
Layer_0
  10
58.875
  20
-19.649689
  0
VERTEX
  5
198
  8
Layer_0
  10
60.375
  20
-19.649689
  0
VERTEX
  5
199
  8
Layer_0
  10
60.375
  20
-21.999664
  0
VERTEX
  5
19a
  8
Layer_0
  10
18.750031
  20
-21.999664
  0
SEQEND
  0
POLYLINE
  5
19c
  8
Layer_0
  70
1
  66
1
  10
0
  20
0
  30
0
  0
VERTEX
  5
19c
  8
Layer_0
  10
427.00006
  20
21.875336
  0
VERTEX
  5
19d
  8
Layer_0
  10
445
  20
21.875336
  0
VERTEX
  5
19e
  8
Layer_0
  10
445
  20
34.875336
  0
VERTEX
  5
19f
  8
Layer_0
  10
427.00006
  20
34.875336
  0
VERTEX
  5
1a0
  8
Layer_0
  10
427.00006
  20
21.875336
  0
SEQEND
  0
POLYLINE
  5
1a2
  8
Layer_0
  70
1
  66
1
  10
0
  20
0
  30
0
  0
VERTEX
  5
1a2
  8
Layer_0
  10
412.5
  20
28.375336
  0
VERTEX
  5
1a3
  8
Layer_0
  10
412.51288
  20
28.630939
  0
VERTEX
  5
1a4
  8
Layer_0
  10
412.55078
  20
28.879162
  0
VERTEX
  5
1a5
  8
Layer_0
  10
412.6124
  20
29.118748
  0
VERTEX
  5
1a6
  8
Layer_0
  10
412.69647
  20
29.348434
  0
VERTEX
  5
1a7
  8
Layer_0
  10
412.927
  20
29.773094
  0
VERTEX
  5
1a8
  8
Layer_0
  10
413.23224
  20
30.143089
  0
VERTEX
  5
1a9
  8
Layer_0
  10
413.60223
  20
30.448364
  0
VERTEX
  5
1aa
  8
Layer_0
  10
414.02689
  20
30.678867
  0
VERTEX
  5
1ab
  8
Layer_0
  10
414.25659
  20
30.762938
  0
VERTEX
  5
1ac
  8
Layer_0
  10
414.49619
  20
30.824543
  0
VERTEX
  5
1ad
  8
Layer_0
  10
414.74438
  20
30.862429
  0
VERTEX
  5
1ae
  8
Layer_0
  10
415
  20
30.875336
  0
VERTEX
  5
1af
  8
Layer_0
  10
415.25562
  20
30.862429
  0
VERTEX
  5
1b0
  8
Layer_0
  10
415.50385
  20
30.824543
  0
VERTEX
  5
1b1
  8
Layer_0
  10
415.74341
  20
30.762938
  0
VERTEX
  5
1b2
  8
Layer_0
  10
415.97311
  20
30.678867
  0
VERTEX
  5
1b3
  8
Layer_0
  10
416.39777
  20
30.448364
  0
VERTEX
  5
1b4
  8
Layer_0
  10
416.76776
  20
30.143089
  0
VERTEX
  5
1b5
  8
Layer_0
  10
417.07306
  20
29.773094
  0
VERTEX
  5
1b6
  8
Layer_0
  10
417.30353
  20
29.348434
  0
VERTEX
  5
1b7
  8
Layer_0
  10
417.3876
  20
29.118748
  0
VERTEX
  5
1b8
  8
Layer_0
  10
417.44922
  20
28.879162
  0
VERTEX
  5
1b9
  8
Layer_0
  10
417.48712
  20
28.630939
  0
VERTEX
  5
1ba
  8
Layer_0
  10
417.5
  20
28.375336
  0
VERTEX
  5
1bb
  8
Layer_0
  10
417.48712
  20
28.11972
  0
VERTEX
  5
1bc
  8
Layer_0
  10
417.44922
  20
27.87149
  0
VERTEX
  5
1bd
  8
Layer_0
  10
417.3876
  20
27.631903
  0
VERTEX
  5
1be
  8
Layer_0
  10
417.30353
  20
27.402212
  0
VERTEX
  5
1bf
  8
Layer_0
  10
417.07306
  20
26.977551
  0
VERTEX
  5
1c0
  8
Layer_0
  10
416.76776
  20
26.607559
  0
VERTEX
  5
1c1
  8
Layer_0
  10
416.39777
  20
26.30229
  0
VERTEX
  5
1c2
  8
Layer_0
  10
415.97311
  20
26.071795
  0
VERTEX
  5
1c3
  8
Layer_0
  10
415.74341
  20
25.987728
  0
VERTEX
  5
1c4
  8
Layer_0
  10
415.50385
  20
25.926125
  0
VERTEX
  5
1c5
  8
Layer_0
  10
415.25562
  20
25.888241
  0
VERTEX
  5
1c6
  8
Layer_0
  10
415
  20
25.875336
  0
VERTEX
  5
1c7
  8
Layer_0
  10
414.74438
  20
25.888241
  0
VERTEX
  5
1c8
  8
Layer_0
  10
414.49619
  20
25.926125
  0
VERTEX
  5
1c9
  8
Layer_0
  10
414.25659
  20
25.987728
  0
VERTEX
  5
1ca
  8
Layer_0
  10
414.02689
  20
26.071795
  0
VERTEX
  5
1cb
  8
Layer_0
  10
413.60223
  20
26.30229
  0
VERTEX
  5
1cc
  8
Layer_0
  10
413.23224
  20
26.607559
  0
VERTEX
  5
1cd
  8
Layer_0
  10
412.927
  20
26.977551
  0
VERTEX
  5
1ce
  8
Layer_0
  10
412.69647
  20
27.402212
  0
VERTEX
  5
1cf
  8
Layer_0
  10
412.6124
  20
27.631903
  0
VERTEX
  5
1d0
  8
Layer_0
  10
412.55078
  20
27.87149
  0
VERTEX
  5
1d1
  8
Layer_0
  10
412.51288
  20
28.11972
  0
VERTEX
  5
1d2
  8
Layer_0
  10
412.5
  20
28.375336
  0
SEQEND
  0
ENDSEC
  0
EOF
